<svg width="1233" height="349" viewBox="0 0 1233 349" fill="none" xmlns="http://www.w3.org/2000/svg">
<path fill-rule="evenodd" clip-rule="evenodd" d="M0 168.5V337H38H76V268.5V200H96.5C107.775 200 116.997 199.663 116.992 199.25C116.955 195.508 114.541 185.02 113.04 182.078C110.267 176.643 103.967 170.798 92.852 163.352C77.14 152.825 68.961 142.7 63.328 126.806C59.884 117.088 59.116 100.371 61.361 84C62.228 77.675 63.208 70.25 63.538 67.5C63.867 64.75 64.538 59.8 65.029 56.5C65.519 53.2 66.392 46.675 66.969 42C67.546 37.325 68.199 32.375 68.42 31C68.996 27.422 70.272 18.767 70.483 17C70.951 13.1 72.131 5.222 72.617 2.75L73.159 0H36.579H0V168.5ZM174 0.679993C174 1.05399 176.73 20.516 180.066 43.93C186.772 90.989 187.894 104.31 186.023 114.674C182.102 136.387 172.681 150.718 154.221 163.048C141.346 171.647 136.593 176.005 133.503 182.04C131.603 185.752 129 195.661 129 199.184C129 199.633 138 200 149 200H169V268.5V337H207H245V168.5V0H209.5C189.975 0 174 0.305993 174 0.679993ZM115.69 330.862C108.738 337.376 107.922 337.718 95.371 339.384C89.392 340.178 83.712 341.139 82.75 341.52C80.733 342.32 80.449 345.049 82.2 346.8C83.774 348.374 161.142 348.53 164.066 346.965C166.734 345.537 166.524 342.15 163.701 341.076C162.436 340.596 158.274 339.907 154.451 339.547C141.344 338.312 138.355 337.223 132.048 331.384C124.573 324.463 122.588 324.4 115.69 330.862Z" fill="white"/>
<path d="M320.22 126V35H337.12V111.7H384.7V126H320.22ZM417.542 72.83H462.782V86.74H417.542V72.83ZM418.842 111.83H470.192V126H401.942V35H468.372V49.17H418.842V111.83ZM535.572 127.3C528.465 127.3 521.922 126.13 515.942 123.79C509.962 121.45 504.762 118.2 500.342 114.04C495.922 109.793 492.499 104.853 490.072 99.22C487.645 93.5 486.432 87.26 486.432 80.5C486.432 73.74 487.645 67.5433 490.072 61.91C492.499 56.19 495.922 51.25 500.342 47.09C504.762 42.8433 509.962 39.55 515.942 37.21C521.922 34.87 528.422 33.7 535.442 33.7C542.549 33.7 549.049 34.87 554.942 37.21C560.922 39.55 566.122 42.8433 570.542 47.09C574.962 51.25 578.385 56.19 580.812 61.91C583.239 67.5433 584.452 73.74 584.452 80.5C584.452 87.26 583.239 93.5 580.812 99.22C578.385 104.94 574.962 109.88 570.542 114.04C566.122 118.2 560.922 121.45 554.942 123.79C549.049 126.13 542.592 127.3 535.572 127.3ZM535.442 112.48C540.035 112.48 544.282 111.7 548.182 110.14C552.082 108.58 555.462 106.37 558.322 103.51C561.182 100.563 563.392 97.1833 564.952 93.37C566.599 89.47 567.422 85.18 567.422 80.5C567.422 75.82 566.599 71.5733 564.952 67.76C563.392 63.86 561.182 60.48 558.322 57.62C555.462 54.6733 552.082 52.42 548.182 50.86C544.282 49.3 540.035 48.52 535.442 48.52C530.849 48.52 526.602 49.3 522.702 50.86C518.889 52.42 515.509 54.6733 512.562 57.62C509.702 60.48 507.449 63.86 505.802 67.76C504.242 71.5733 503.462 75.82 503.462 80.5C503.462 85.0933 504.242 89.34 505.802 93.24C507.449 97.14 509.702 100.563 512.562 103.51C515.422 106.37 518.802 108.58 522.702 110.14C526.602 111.7 530.849 112.48 535.442 112.48ZM606.266 126V35H620.176L677.246 105.07H670.356V35H687.126V126H673.216L616.146 55.93H623.036V126H606.266Z" fill="white"/>
<path d="M384.18 161H401.08V252H384.18V161ZM337.12 252H320.22V161H337.12V252ZM385.48 213H335.69V198.57H385.48V213ZM472.004 253.3C464.897 253.3 458.354 252.13 452.374 249.79C446.394 247.45 441.194 244.2 436.774 240.04C432.354 235.793 428.931 230.853 426.504 225.22C424.077 219.5 422.864 213.26 422.864 206.5C422.864 199.74 424.077 193.543 426.504 187.91C428.931 182.19 432.354 177.25 436.774 173.09C441.194 168.843 446.394 165.55 452.374 163.21C458.354 160.87 464.854 159.7 471.874 159.7C478.981 159.7 485.481 160.87 491.374 163.21C497.354 165.55 502.554 168.843 506.974 173.09C511.394 177.25 514.817 182.19 517.244 187.91C519.671 193.543 520.884 199.74 520.884 206.5C520.884 213.26 519.671 219.5 517.244 225.22C514.817 230.94 511.394 235.88 506.974 240.04C502.554 244.2 497.354 247.45 491.374 249.79C485.481 252.13 479.024 253.3 472.004 253.3ZM471.874 238.48C476.467 238.48 480.714 237.7 484.614 236.14C488.514 234.58 491.894 232.37 494.754 229.51C497.614 226.563 499.824 223.183 501.384 219.37C503.031 215.47 503.854 211.18 503.854 206.5C503.854 201.82 503.031 197.573 501.384 193.76C499.824 189.86 497.614 186.48 494.754 183.62C491.894 180.673 488.514 178.42 484.614 176.86C480.714 175.3 476.467 174.52 471.874 174.52C467.281 174.52 463.034 175.3 459.134 176.86C455.321 178.42 451.941 180.673 448.994 183.62C446.134 186.48 443.881 189.86 442.234 193.76C440.674 197.573 439.894 201.82 439.894 206.5C439.894 211.093 440.674 215.34 442.234 219.24C443.881 223.14 446.134 226.563 448.994 229.51C451.854 232.37 455.234 234.58 459.134 236.14C463.034 237.7 467.281 238.48 471.874 238.48ZM570.908 253.3C563.801 253.3 556.998 252.303 550.498 250.31C543.998 248.23 538.841 245.587 535.028 242.38L540.878 229.25C544.518 232.11 549.024 234.493 554.398 236.4C559.771 238.307 565.274 239.26 570.908 239.26C575.674 239.26 579.531 238.74 582.478 237.7C585.424 236.66 587.591 235.273 588.978 233.54C590.364 231.72 591.058 229.683 591.058 227.43C591.058 224.657 590.061 222.447 588.068 220.8C586.074 219.067 583.474 217.723 580.268 216.77C577.148 215.73 573.638 214.777 569.738 213.91C565.924 213.043 562.068 212.047 558.168 210.92C554.354 209.707 550.844 208.19 547.638 206.37C544.518 204.463 541.961 201.95 539.968 198.83C537.974 195.71 536.978 191.723 536.978 186.87C536.978 181.93 538.278 177.423 540.878 173.35C543.564 169.19 547.594 165.897 552.968 163.47C558.428 160.957 565.318 159.7 573.638 159.7C579.098 159.7 584.514 160.393 589.888 161.78C595.261 163.167 599.941 165.16 603.928 167.76L598.598 180.89C594.524 178.463 590.321 176.687 585.988 175.56C581.654 174.347 577.494 173.74 573.508 173.74C568.828 173.74 565.014 174.303 562.068 175.43C559.208 176.557 557.084 178.03 555.698 179.85C554.398 181.67 553.748 183.75 553.748 186.09C553.748 188.863 554.701 191.117 556.608 192.85C558.601 194.497 561.158 195.797 564.278 196.75C567.484 197.703 571.038 198.657 574.938 199.61C578.838 200.477 582.694 201.473 586.508 202.6C590.408 203.727 593.918 205.2 597.038 207.02C600.244 208.84 602.801 211.31 604.708 214.43C606.701 217.55 607.698 221.493 607.698 226.26C607.698 231.113 606.354 235.62 603.668 239.78C601.068 243.853 597.038 247.147 591.578 249.66C586.118 252.087 579.228 253.3 570.908 253.3ZM628.356 252V161H665.796C673.856 161 680.746 162.3 686.466 164.9C692.272 167.5 696.736 171.227 699.856 176.08C702.976 180.933 704.536 186.697 704.536 193.37C704.536 200.043 702.976 205.807 699.856 210.66C696.736 215.513 692.272 219.24 686.466 221.84C680.746 224.44 673.856 225.74 665.796 225.74H637.716L645.256 217.81V252H628.356ZM645.256 219.63L637.716 211.44H665.016C672.469 211.44 678.059 209.88 681.786 206.76C685.599 203.553 687.506 199.09 687.506 193.37C687.506 187.563 685.599 183.1 681.786 179.98C678.059 176.86 672.469 175.3 665.016 175.3H637.716L645.256 166.98V219.63ZM725.312 252V161H742.212V252H725.312ZM789.186 252V175.3H759.026V161H836.246V175.3H806.086V252H789.186ZM835.389 252L876.339 161H892.979L934.059 252H916.379L881.149 169.97H887.909L852.809 252H835.389ZM854.239 230.94L858.789 217.68H907.929L912.479 230.94H854.239ZM949.532 252V161H966.432V237.7H1014.01V252H949.532ZM1031.25 252V161H1048.15V252H1031.25ZM1095.13 252V175.3H1064.97V161H1142.19V175.3H1112.03V252H1095.13ZM1179.73 252V215.99L1183.5 226.39L1143.98 161H1162.05L1193.77 213.65H1183.63L1215.61 161H1232.25L1192.73 226.39L1196.63 215.99V252H1179.73Z" fill="white"/>
<path d="M319.23 322V290.5H332.19C334.98 290.5 337.365 290.95 339.345 291.85C341.355 292.75 342.9 294.04 343.98 295.72C345.06 297.4 345.6 299.395 345.6 301.705C345.6 304.015 345.06 306.01 343.98 307.69C342.9 309.37 341.355 310.66 339.345 311.56C337.365 312.46 334.98 312.91 332.19 312.91H322.47L325.08 310.165V322H319.23ZM325.08 310.795L322.47 307.96H331.92C334.5 307.96 336.435 307.42 337.725 306.34C339.045 305.23 339.705 303.685 339.705 301.705C339.705 299.695 339.045 298.15 337.725 297.07C336.435 295.99 334.5 295.45 331.92 295.45H322.47L325.08 292.57V310.795ZM357.292 322V290.5H370.252C373.042 290.5 375.427 290.95 377.407 291.85C379.417 292.75 380.962 294.04 382.042 295.72C383.122 297.4 383.662 299.395 383.662 301.705C383.662 304.015 383.122 306.01 382.042 307.69C380.962 309.34 379.417 310.615 377.407 311.515C375.427 312.385 373.042 312.82 370.252 312.82H360.532L363.142 310.165V322H357.292ZM377.902 322L369.937 310.57H376.192L384.202 322H377.902ZM363.142 310.795L360.532 308.005H369.982C372.562 308.005 374.497 307.45 375.787 306.34C377.107 305.23 377.767 303.685 377.767 301.705C377.767 299.695 377.107 298.15 375.787 297.07C374.497 295.99 372.562 295.45 369.982 295.45H360.532L363.142 292.57V310.795ZM401.457 303.595H417.117V308.41H401.457V303.595ZM401.907 317.095H419.682V322H396.057V290.5H419.052V295.405H401.907V317.095ZM432.053 322V290.5H436.868L450.638 313.495H448.118L461.663 290.5H466.478L466.523 322H460.988L460.943 299.185H462.113L450.593 318.4H447.983L436.283 299.185H437.633V322H432.053ZM480.882 322V290.5H486.732V322H480.882ZM506.502 303.595H522.162V308.41H506.502V303.595ZM506.952 317.095H524.727V322H501.102V290.5H524.097V295.405H506.952V317.095ZM537.099 322V290.5H550.059C552.849 290.5 555.234 290.95 557.214 291.85C559.224 292.75 560.769 294.04 561.849 295.72C562.929 297.4 563.469 299.395 563.469 301.705C563.469 304.015 562.929 306.01 561.849 307.69C560.769 309.34 559.224 310.615 557.214 311.515C555.234 312.385 552.849 312.82 550.059 312.82H540.339L542.949 310.165V322H537.099ZM557.709 322L549.744 310.57H555.999L564.009 322H557.709ZM542.949 310.795L540.339 308.005H549.789C552.369 308.005 554.304 307.45 555.594 306.34C556.914 305.23 557.574 303.685 557.574 301.705C557.574 299.695 556.914 298.15 555.594 297.07C554.304 295.99 552.369 295.45 549.789 295.45H540.339L542.949 292.57V310.795ZM594.15 322V290.5H608.91C612.69 290.5 615.57 291.25 617.55 292.75C619.53 294.22 620.52 296.2 620.52 298.69C620.52 300.37 620.13 301.81 619.35 303.01C618.57 304.18 617.52 305.095 616.2 305.755C614.91 306.385 613.5 306.7 611.97 306.7L612.78 305.08C614.55 305.08 616.14 305.41 617.55 306.07C618.96 306.7 620.07 307.63 620.88 308.86C621.72 310.09 622.14 311.62 622.14 313.45C622.14 316.15 621.105 318.25 619.035 319.75C616.965 321.25 613.89 322 609.81 322H594.15ZM600 317.41H609.45C611.64 317.41 613.32 317.05 614.49 316.33C615.66 315.61 616.245 314.455 616.245 312.865C616.245 311.305 615.66 310.165 614.49 309.445C613.32 308.695 611.64 308.32 609.45 308.32H599.55V303.775H608.28C610.32 303.775 611.88 303.415 612.96 302.695C614.07 301.975 614.625 300.895 614.625 299.455C614.625 297.985 614.07 296.89 612.96 296.17C611.88 295.45 610.32 295.09 608.28 295.09H600V317.41ZM629.779 322L643.954 290.5H649.714L663.934 322H657.814L645.619 293.605H647.959L635.809 322H629.779ZM636.304 314.71L637.879 310.12H654.889L656.464 314.71H636.304ZM673.79 322V290.5H686.75C689.54 290.5 691.925 290.95 693.905 291.85C695.915 292.75 697.46 294.04 698.54 295.72C699.62 297.4 700.16 299.395 700.16 301.705C700.16 304.015 699.62 306.01 698.54 307.69C697.46 309.34 695.915 310.615 693.905 311.515C691.925 312.385 689.54 312.82 686.75 312.82H677.03L679.64 310.165V322H673.79ZM694.4 322L686.435 310.57H692.69L700.7 322H694.4ZM679.64 310.795L677.03 308.005H686.48C689.06 308.005 690.995 307.45 692.285 306.34C693.605 305.23 694.265 303.685 694.265 301.705C694.265 299.695 693.605 298.15 692.285 297.07C690.995 295.99 689.06 295.45 686.48 295.45H677.03L679.64 292.57V310.795ZM745.421 322.45C743.021 322.45 740.786 322.06 738.716 321.28C736.676 320.47 734.891 319.345 733.361 317.905C731.861 316.435 730.691 314.71 729.851 312.73C729.011 310.75 728.591 308.59 728.591 306.25C728.591 303.91 729.011 301.75 729.851 299.77C730.691 297.79 731.876 296.08 733.406 294.64C734.936 293.17 736.721 292.045 738.761 291.265C740.801 290.455 743.036 290.05 745.466 290.05C748.046 290.05 750.401 290.5 752.531 291.4C754.661 292.27 756.461 293.575 757.931 295.315L754.151 298.87C753.011 297.64 751.736 296.725 750.326 296.125C748.916 295.495 747.386 295.18 745.736 295.18C744.086 295.18 742.571 295.45 741.191 295.99C739.841 296.53 738.656 297.295 737.636 298.285C736.646 299.275 735.866 300.445 735.296 301.795C734.756 303.145 734.486 304.63 734.486 306.25C734.486 307.87 734.756 309.355 735.296 310.705C735.866 312.055 736.646 313.225 737.636 314.215C738.656 315.205 739.841 315.97 741.191 316.51C742.571 317.05 744.086 317.32 745.736 317.32C747.386 317.32 748.916 317.02 750.326 316.42C751.736 315.79 753.011 314.845 754.151 313.585L757.931 317.185C756.461 318.895 754.661 320.2 752.531 321.1C750.401 322 748.031 322.45 745.421 322.45ZM783.487 322.45C781.027 322.45 778.762 322.045 776.692 321.235C774.622 320.425 772.822 319.3 771.292 317.86C769.762 316.39 768.577 314.68 767.737 312.73C766.897 310.75 766.477 308.59 766.477 306.25C766.477 303.91 766.897 301.765 767.737 299.815C768.577 297.835 769.762 296.125 771.292 294.685C772.822 293.215 774.622 292.075 776.692 291.265C778.762 290.455 781.012 290.05 783.442 290.05C785.902 290.05 788.152 290.455 790.192 291.265C792.262 292.075 794.062 293.215 795.592 294.685C797.122 296.125 798.307 297.835 799.147 299.815C799.987 301.765 800.407 303.91 800.407 306.25C800.407 308.59 799.987 310.75 799.147 312.73C798.307 314.71 797.122 316.42 795.592 317.86C794.062 319.3 792.262 320.425 790.192 321.235C788.152 322.045 785.917 322.45 783.487 322.45ZM783.442 317.32C785.032 317.32 786.502 317.05 787.852 316.51C789.202 315.97 790.372 315.205 791.362 314.215C792.352 313.195 793.117 312.025 793.657 310.705C794.227 309.355 794.512 307.87 794.512 306.25C794.512 304.63 794.227 303.16 793.657 301.84C793.117 300.49 792.352 299.32 791.362 298.33C790.372 297.31 789.202 296.53 787.852 295.99C786.502 295.45 785.032 295.18 783.442 295.18C781.852 295.18 780.382 295.45 779.032 295.99C777.712 296.53 776.542 297.31 775.522 298.33C774.532 299.32 773.752 300.49 773.182 301.84C772.642 303.16 772.372 304.63 772.372 306.25C772.372 307.84 772.642 309.31 773.182 310.66C773.752 312.01 774.532 313.195 775.522 314.215C776.512 315.205 777.682 315.97 779.032 316.51C780.382 317.05 781.852 317.32 783.442 317.32ZM812.458 322V290.5H817.273L837.028 314.755H834.643V290.5H840.448V322H835.633L815.878 297.745H818.263V322H812.458ZM864.504 322.45C862.044 322.45 859.689 322.105 857.439 321.415C855.189 320.695 853.404 319.78 852.084 318.67L854.109 314.125C855.369 315.115 856.929 315.94 858.789 316.6C860.649 317.26 862.554 317.59 864.504 317.59C866.154 317.59 867.489 317.41 868.509 317.05C869.529 316.69 870.279 316.21 870.759 315.61C871.239 314.98 871.479 314.275 871.479 313.495C871.479 312.535 871.134 311.77 870.444 311.2C869.754 310.6 868.854 310.135 867.744 309.805C866.664 309.445 865.449 309.115 864.099 308.815C862.779 308.515 861.444 308.17 860.094 307.78C858.774 307.36 857.559 306.835 856.449 306.205C855.369 305.545 854.484 304.675 853.794 303.595C853.104 302.515 852.759 301.135 852.759 299.455C852.759 297.745 853.209 296.185 854.109 294.775C855.039 293.335 856.434 292.195 858.294 291.355C860.184 290.485 862.569 290.05 865.449 290.05C867.339 290.05 869.214 290.29 871.074 290.77C872.934 291.25 874.554 291.94 875.934 292.84L874.089 297.385C872.679 296.545 871.224 295.93 869.724 295.54C868.224 295.12 866.784 294.91 865.404 294.91C863.784 294.91 862.464 295.105 861.444 295.495C860.454 295.885 859.719 296.395 859.239 297.025C858.789 297.655 858.564 298.375 858.564 299.185C858.564 300.145 858.894 300.925 859.554 301.525C860.244 302.095 861.129 302.545 862.209 302.875C863.319 303.205 864.549 303.535 865.899 303.865C867.249 304.165 868.584 304.51 869.904 304.9C871.254 305.29 872.469 305.8 873.549 306.43C874.659 307.06 875.544 307.915 876.204 308.995C876.894 310.075 877.239 311.44 877.239 313.09C877.239 314.77 876.774 316.33 875.844 317.77C874.944 319.18 873.549 320.32 871.659 321.19C869.769 322.03 867.384 322.45 864.504 322.45ZM902.435 322.45C898.115 322.45 894.725 321.235 892.265 318.805C889.835 316.375 888.62 312.865 888.62 308.275V290.5H894.47V308.05C894.47 311.29 895.16 313.645 896.54 315.115C897.95 316.585 899.93 317.32 902.48 317.32C905.03 317.32 906.995 316.585 908.375 315.115C909.755 313.645 910.445 311.29 910.445 308.05V290.5H916.205V308.275C916.205 312.865 914.975 316.375 912.515 318.805C910.085 321.235 906.725 322.45 902.435 322.45ZM930.247 322V290.5H936.097V317.05H952.567V322H930.247ZM966.482 322V295.45H956.042V290.5H982.772V295.45H972.332V322H966.482ZM986.975 322L1001.15 290.5H1006.91L1021.13 322H1015.01L1002.81 293.605H1005.15L993.005 322H986.975ZM993.5 314.71L995.075 310.12H1012.08L1013.66 314.71H993.5ZM1030.99 322V290.5H1035.8L1055.56 314.755H1053.17V290.5H1058.98V322H1054.16L1034.41 297.745H1036.79V322H1030.99ZM1079.66 322V295.45H1069.22V290.5H1095.95V295.45H1085.51V322H1079.66ZM1115.64 322.45C1113.18 322.45 1110.83 322.105 1108.58 321.415C1106.33 320.695 1104.54 319.78 1103.22 318.67L1105.25 314.125C1106.51 315.115 1108.07 315.94 1109.93 316.6C1111.79 317.26 1113.69 317.59 1115.64 317.59C1117.29 317.59 1118.63 317.41 1119.65 317.05C1120.67 316.69 1121.42 316.21 1121.9 315.61C1122.38 314.98 1122.62 314.275 1122.62 313.495C1122.62 312.535 1122.27 311.77 1121.58 311.2C1120.89 310.6 1119.99 310.135 1118.88 309.805C1117.8 309.445 1116.59 309.115 1115.24 308.815C1113.92 308.515 1112.58 308.17 1111.23 307.78C1109.91 307.36 1108.7 306.835 1107.59 306.205C1106.51 305.545 1105.62 304.675 1104.93 303.595C1104.24 302.515 1103.9 301.135 1103.9 299.455C1103.9 297.745 1104.35 296.185 1105.25 294.775C1106.18 293.335 1107.57 292.195 1109.43 291.355C1111.32 290.485 1113.71 290.05 1116.59 290.05C1118.48 290.05 1120.35 290.29 1122.21 290.77C1124.07 291.25 1125.69 291.94 1127.07 292.84L1125.23 297.385C1123.82 296.545 1122.36 295.93 1120.86 295.54C1119.36 295.12 1117.92 294.91 1116.54 294.91C1114.92 294.91 1113.6 295.105 1112.58 295.495C1111.59 295.885 1110.86 296.395 1110.38 297.025C1109.93 297.655 1109.7 298.375 1109.7 299.185C1109.7 300.145 1110.03 300.925 1110.69 301.525C1111.38 302.095 1112.27 302.545 1113.35 302.875C1114.46 303.205 1115.69 303.535 1117.04 303.865C1118.39 304.165 1119.72 304.51 1121.04 304.9C1122.39 305.29 1123.61 305.8 1124.69 306.43C1125.8 307.06 1126.68 307.915 1127.34 308.995C1128.03 310.075 1128.38 311.44 1128.38 313.09C1128.38 314.77 1127.91 316.33 1126.98 317.77C1126.08 319.18 1124.69 320.32 1122.8 321.19C1120.91 322.03 1118.52 322.45 1115.64 322.45Z" fill="white"/>
</svg>
